<?xml version="1.0" standalone="no"?>
<!DOCTYPE svg PUBLIC "-//W3C//DTD SVG 20010904//EN"
 "http://www.w3.org/TR/2001/REC-SVG-20010904/DTD/svg10.dtd">
<svg version="1.0" xmlns="http://www.w3.org/2000/svg"
 width="700.000000pt" height="700.000000pt" viewBox="0 0 700.000000 700.000000"
 preserveAspectRatio="xMidYMid meet">
<metadata>
Created by potrace 1.14, written by Peter Selinger 2001-2017
</metadata>
<g transform="translate(0.000000,700.000000) scale(0.100000,-0.100000)"
fill="#000000" stroke="none">
<path d="M2487 6337 c-23 -6 -45 -20 -58 -39 -21 -29 -22 -41 -22 -319 -1
-192 -5 -289 -12 -290 -5 0 -206 -2 -445 -4 -284 -2 -445 -6 -462 -14 -16 -6
-36 -24 -47 -41 -17 -28 -18 -54 -18 -268 0 -130 4 -249 9 -264 6 -15 25 -37
43 -48 30 -19 47 -20 242 -19 208 2 210 2 269 -25 63 -29 122 -80 156 -134 46
-75 46 -57 46 -1373 0 -1344 2 -1293 -53 -1379 -34 -53 -100 -107 -162 -130
-46 -17 -83 -20 -263 -23 -302 -5 -288 11 -288 -332 1 -221 2 -243 20 -273 11
-18 28 -37 39 -43 12 -6 174 -10 450 -9 236 0 433 1 437 1 39 6 38 11 38 -289
0 -393 -24 -367 329 -366 262 0 279 3 311 53 15 22 17 62 17 313 0 258 2 288
16 289 68 2 194 -1 198 -5 3 -2 5 -130 5 -284 -1 -298 1 -309 51 -346 26 -19
40 -21 276 -20 217 0 252 2 275 17 51 34 54 50 53 350 0 152 2 280 5 282 3 3
57 8 119 10 189 7 322 27 491 75 357 100 637 311 782 591 41 80 101 229 91
229 -2 0 0 12 6 26 5 15 12 41 14 58 3 17 9 58 14 91 10 62 7 303 -4 365 -49
272 -167 480 -360 636 -123 100 -299 179 -465 209 -19 4 -42 8 -50 10 -8 2
-27 4 -42 4 -20 1 -28 6 -28 20 0 19 5 22 120 61 486 167 714 657 575 1240
-34 145 -139 316 -267 435 -140 132 -359 241 -559 280 -137 27 -203 35 -323
41 -61 2 -112 7 -114 9 -3 3 -5 127 -5 277 1 296 -3 322 -53 354 -24 16 -54
18 -280 19 l-254 0 -32 -33 -33 -32 -2 -291 c-1 -161 -5 -294 -7 -297 -5 -4
-142 -6 -223 -3 l-23 1 0 290 0 290 -34 37 -33 37 -219 1 c-121 0 -236 -3
-257 -8z m1468 -1315 c123 -27 226 -77 301 -147 59 -56 115 -161 139 -259 21
-90 14 -283 -14 -360 -81 -228 -276 -348 -618 -381 -51 -5 -438 -8 -670 -6
l-63 1 0 583 0 583 438 -2 c268 -1 456 -6 487 -12z m35 -1767 c36 -5 67 -9 70
-10 3 -1 21 -5 40 -9 272 -61 459 -256 496 -517 7 -51 7 -236 0 -248 -3 -4 -8
-22 -11 -40 -9 -51 -52 -150 -82 -190 -98 -128 -243 -206 -463 -246 -137 -25
-165 -26 -597 -29 l-413 -3 0 647 c0 356 2 649 4 651 9 8 891 3 956 -6z"/>
</g>
</svg>
